#!OML:ASF I:\Actors\actors\Patient Classification 1\Patient 1\Session 1\Subject1.ASF
:FULLY-SPECIFIED
:DEGREES
234
root 1.33607 17.4955 10.0002 9.21057 2.77664 -7.70132
lowerback -6.4992 1.11973 4.39378
upperback -9.56183 1.48096 1.33696
thorax -6.29269 0.511009 -1.04085
lowerneck -10.6995 -5.25785 -1.65729
upperneck 4.49496 -7.22033 5.68665
head 3.69023 -3.35385 1.70687
rclavicle -1.00386e-014 2.78299e-015
rhumerus -55.6133 27.2426 -116.18
rradius 116.292
rwrist -6.39262
rhand 41.582 -38.5007
rfingers 7.12502
rthumb 63.6929 -47.7139
lclavicle -1.00386e-014 2.78299e-015
lhumerus -59.6659 -18.5915 107.042
lradius 115.332
lwrist 15.9459
lhand 23.5032 -8.58349
lfingers 7.12502
lthumb 47.7835 13.7297
rfemur -2.17585 20.0756 24.1152
rtibia 8.91637
rfoot -17.2595 -21.8586
rtoes -2.60835
lfemur 4.47288 -32.6365 -13.3645
ltibia -0.892464
lfoot -14.4376 37.3281
ltoes -3.22516
235
root 1.34231 17.5134 10.0101 9.50577 3.03993 -7.82785
lowerback -7.0814 1.22096 4.43083
upperback -9.79535 1.58769 1.26029
thorax -6.21154 0.559292 -1.13006
lowerneck -10.4642 -5.39775 -1.90149
upperneck 4.82453 -7.38626 5.58312
head 3.77412 -3.44426 1.70706
rclavicle -9.64106e-015 2.3059e-014
rhumerus -56.2399 26.3008 -116.167
rradius 116.592
rwrist -5.081
rhand 41.6429 -37.6252
rfingers 7.12502
rthumb 63.7423 -46.7661
lclavicle -9.64106e-015 2.3059e-014
lhumerus -60.3717 -19.4918 107.51
lradius 115.3
lwrist 15.9562
lhand 20.7101 -8.88778
lfingers 7.12502
lthumb 45.196 14.5342
rfemur -2.44418 19.9699 24.1868
rtibia 8.84356
rfoot -17.1546 -22.0621
rtoes -2.78953
lfemur 4.02235 -32.6496 -12.9564
ltibia -0.92584
lfoot -14.3357 37.2338
ltoes -2.89337
236
root 1.34378 17.5187 10.0167 9.63081 3.21187 -8.01041
lowerback -7.46352 1.32545 4.51768
upperback -9.9493 1.70529 1.17834
thorax -6.15539 0.609508 -1.25468
lowerneck -10.0648 -5.46262 -2.15965
upperneck 4.86749 -7.45044 5.64808
head 3.73057 -3.4852 1.77925
rclavicle -1.2921e-015 2.46493e-014
rhumerus -56.3891 25.6022 -115.92
rradius 116.703
rwrist -4.39601
rhand 41.5722 -36.9662
rfingers 7.12502
rthumb 63.6849 -46.1909
lclavicle -1.2921e-015 2.46493e-014
lhumerus -60.7796 -20.1841 107.663
lradius 115.235
lwrist 16.0995
lhand 18.7095 -9.49352
lfingers 7.12502
lthumb 43.3311 14.6344
rfemur -2.54981 20.0171 24.3842
rtibia 8.83918
rfoot -17.3228 -22.2288
rtoes -2.73836
lfemur 3.82514 -32.4281 -12.5533
ltibia -1.05501
lfoot -14.1123 37.0022
ltoes -3.15596
237
root 1.34221 17.5072 10.0181 9.55419 3.36627 -8.09411
lowerback -7.60778 1.4004 4.49473
upperback -10.0312 1.79597 1.04802
thorax -6.1553 0.650942 -1.37356
lowerneck -9.55503 -5.49563 -2.26047
upperneck 4.80812 -7.49203 5.74144
head 3.6224 -3.51418 1.83771
rclavicle -1.87852e-014 -9.54166e-015
rhumerus -56.0444 25.2329 -115.408
rradius 116.652
rwrist -4.70766
rhand 41.6627 -36.9846
rfingers 7.12502
rthumb 63.7583 -46.102
lclavicle -1.87852e-014 -9.54166e-015
lhumerus -60.8204 -20.7231 107.484
lradius 115.102
lwrist 15.9943
lhand 17.6189 -10.1694
lfingers 7.12502
lthumb 42.3108 14.3157
rfemur -2.44389 20.035 24.5415
rtibia 8.87936
rfoot -17.6284 -22.3688
rtoes -2.5185
lfemur 3.92454 -32.4509 -12.4623
ltibia -1.16664
lfoot -13.9153 36.9626
ltoes -3.85333
238
root 1.3412 17.4815 10.016 9.2546 3.49919 -8.01096
lowerback -7.56242 1.42093 4.31106
upperback -10.0292 1.82609 0.901215
thorax -6.17479 0.672339 -1.42541
lowerneck -8.77665 -5.58544 -2.54626
upperneck 4.39071 -7.57788 5.90712
head 3.35393 -3.57627 1.95859
rclavicle -9.74045e-015 -2.38542e-015
rhumerus -55.3733 25.3553 -114.755
rradius 116.451
rwrist -6.13024
rhand 41.8314 -37.6512
rfingers 7.12502
rthumb 63.8948 -46.5669
lclavicle -9.74045e-015 -2.38542e-015
lhumerus -60.6531 -20.8589 107.061
lradius 115.087
lwrist 15.7197
lhand 17.615 -10.567
lfingers 7.12502
lthumb 42.3071 13.9193
rfemur -2.05867 19.9772 24.6008
rtibia 8.89705
rfoot -17.8933 -22.5401
rtoes -2.76928
lfemur 4.33482 -32.7204 -12.8278
ltibia -1.14561
lfoot -14.0317 37.0779
ltoes -4.14185
239
root 1.34022 17.4478 10.0128 8.76971 3.57976 -7.80642
lowerback -7.3886 1.34892 3.98396
upperback -9.9806 1.74309 0.795435
thorax -6.22521 0.647883 -1.35961
lowerneck -7.93945 -5.56476 -2.91521
upperneck 4.17659 -7.52904 6.15063
head 3.15016 -3.56869 2.12976
rclavicle 9.93923e-016 3.97569e-015
rhumerus -54.5537 26.078 -114.173
rradius 116.042
rwrist -8.47057
rhand 41.9739 -38.3529
rfingers 7.12502
rthumb 64.0099 -47.0966
lclavicle 9.93923e-016 3.97569e-015
lhumerus -60.4031 -20.2132 106.441
lradius 115.236
lwrist 15.813
lhand 18.6883 -10.7241
lfingers 7.12502
lthumb 43.3113 13.4109
rfemur -1.41762 20.0218 24.6155
rtibia 8.86997
rfoot -18.2488 -22.781
rtoes -2.87026
lfemur 4.93811 -32.6507 -13.4182
ltibia -1.04345
lfoot -14.235 36.8457
ltoes -4.24849
